<?xml version="1.0" encoding="UTF-8" standalone="no"?>
<svg
   xmlns:dc="http://purl.org/dc/elements/1.1/"
   xmlns:cc="http://creativecommons.org/ns#"
   xmlns:rdf="http://www.w3.org/1999/02/22-rdf-syntax-ns#"
   xmlns:svg="http://www.w3.org/2000/svg"
   xmlns="http://www.w3.org/2000/svg"
   id="svg88"
   viewBox="0 0 493.58002 432.98099"
   version="1.1"
   height="432.98099pt"
   width="493.58002pt">
<style>
   * {
      fill: #f03e3e;
   }
</style>
  <defs
     id="defs76">
    <clipPath
       id="b">
      <path
         id="path70"
         d="M 139.21,169 H 508 V 523 H 139.21 Z" />
    </clipPath>
    <clipPath
       id="a">
      <path
         id="path73"
         d="M 349,320 H 612.79 V 583 H 349 Z" />
    </clipPath>
  </defs>
  <g
     transform="translate(-129.21,-159.49288)"
     id="g86">
    <g
       id="g80"
       clip-path="url(#b)">
      <path
         id="path78"
         d="m 324.09,169.61 c 17.934,0 35.871,-0.29688 53.797,0.0547 48.91,0.92578 85.41,23.68 109.96,65.219 38.543,65.246 19.074,152.44 -42.262,192.5 h -0.004 c -19.746,13 -42.875,19.914 -66.512,19.887 -9.4805,0.0664 -18.973,0.21094 -28.441,-0.0742 h -0.004 c -3.8906,-0.26953 -7.6797,1.3164 -10.219,4.2734 -20.406,21.582 -40.922,43.031 -61.547,64.352 -8.2773,8.582 -20.793,9.1758 -27.75,0.5625 -3.0703,-3.8008 -4.9023,-9.6094 -5.0781,-14.586 -0.60938,-17.086 -0.31641,-34.223 -0.17578,-51.316 0,-3.6172 -0.92578,-5.4375 -4.7188,-6.4297 -54.887,-14.41 -86.871,-51.27 -98.332,-105.32 -10.285,-48.488 1.4414,-92.496 35.527,-129.38 23.316,-25.207 52.555,-38.617 87.02,-39.523 19.562,-0.50781 39.164,-0.0937 58.734,-0.0937 z m -1.7383,115.31 h 22.883 65.562 c 7.7773,0 12.211,-4.625 11.098,-11.312 -0.87891,-5.1875 -4.625,-7.8906 -11.449,-7.8906 h -107.63 -69.281 c -5.2266,0 -8.7031,2.2383 -9.9727,7.3984 -1.1094,4.5234 0.34375,8.5195 4.4023,10.516 2.5977,1.2773 5.9844,1.2969 9.0078,1.3047 28.453,0 56.906,-0.0352 85.379,-0.0156 z m -35.75,70.453 c 17.508,0 35.02,0.0469 52.52,0 6.4766,0 10.691,-3.7734 10.82,-9.3125 0.15625,-5.8672 -4.0703,-9.8359 -10.941,-9.8359 -34.809,-0.0547 -69.617,-0.0547 -104.43,0 -7.3984,0 -11.555,3.8008 -11.379,9.9805 0.16797,5.8086 4.2188,9.1367 11.469,9.168 17.336,0.0352 34.633,0 51.941,0 z" />
    </g>
    <g
       id="g84"
       clip-path="url(#a)">
      <path
         id="path82"
         d="m 349.18,473.72 c 4.2461,-1.2773 7.6484,-3.125 11.098,-3.1836 18.121,-0.29687 36.285,0.47266 54.047,-4.3945 50.012,-13.719 84.34,-45.324 103.52,-92.922 6.6953,-16.648 9.7695,-34.676 14.801,-53.02 9.1562,0.58203 18.934,4.7812 28.082,10.109 38.625,22.469 59.199,69.039 49.949,112.84 -8.6406,40.809 -31.746,68.945 -72.48,81.074 -3.6367,1.082 -3.6992,3.0625 -3.6992,5.8477 0,11.34 0.0469,22.672 0,34.012 -0.0469,8.8711 -3.5703,14.586 -10.461,17.215 -7.5938,2.8867 -13.605,0.21094 -18.879,-5.3086 -14.363,-15.059 -28.676,-30.199 -43.289,-45.008 -2.1445,-2.1719 -5.8555,-3.5703 -8.9727,-3.8555 -14.098,-1.3125 -28.676,-0.25781 -42.289,-3.4688 -27.203,-6.3672 -46.629,-23.781 -61.43,-49.941 z" />
    </g>
  </g>
</svg>
